<svg width="160" height="69" viewBox="0 0 160 69" fill="none" xmlns="http://www.w3.org/2000/svg">
<path d="M67.68 68.8V65.72H70.12C71.1333 65.72 71.8533 65.52 72.28 65.12C72.7067 64.72 72.92 64.0133 72.92 63V43.04H68V40.16H72.92V37C72.92 34.9467 73.4133 33.4667 74.4 32.56C75.3867 31.6533 76.88 31.2 78.88 31.2H83.64V34.24H79.08C78.0933 34.24 77.3733 34.4533 76.92 34.88C76.4933 35.28 76.28 35.9867 76.28 37V40.16H83.64V43.04H76.28V63C76.28 65.0533 75.7867 66.5333 74.8 67.44C73.8133 68.3467 72.3333 68.8 70.36 68.8H67.68Z" fill="black"/>
<path d="M90.9844 60V57.12H97.7444V35.08C97.7444 34.4133 97.411 34.08 96.7444 34.08H91.7044V31.2H97.5444C98.691 31.2 99.571 31.5067 100.184 32.12C100.798 32.7333 101.104 33.6133 101.104 34.76V57.12H107.864V60H90.9844Z" fill="black"/>
<path d="M123.969 60.48C122.102 60.48 120.449 60.0533 119.009 59.2C117.569 58.3467 116.435 57.1467 115.609 55.6C114.782 54.0267 114.369 52.1867 114.369 50.08C114.369 47.9733 114.782 46.1467 115.609 44.6C116.435 43.0267 117.569 41.8133 119.009 40.96C120.449 40.1067 122.102 39.68 123.969 39.68C125.835 39.68 127.489 40.1067 128.929 40.96C130.369 41.8133 131.502 43.0267 132.329 44.6C133.155 46.1467 133.569 47.9733 133.569 50.08C133.569 52.1867 133.155 54.0267 132.329 55.6C131.502 57.1467 130.369 58.3467 128.929 59.2C127.489 60.0533 125.835 60.48 123.969 60.48ZM123.969 57.28C125.115 57.28 126.155 57.0267 127.089 56.52C128.022 56.0133 128.755 55.2267 129.289 54.16C129.849 53.0933 130.129 51.7333 130.129 50.08C130.129 48.4267 129.849 47.0667 129.289 46C128.755 44.9333 128.022 44.1467 127.089 43.64C126.155 43.1333 125.115 42.88 123.969 42.88C122.849 42.88 121.822 43.1333 120.889 43.64C119.955 44.1467 119.209 44.9333 118.649 46C118.089 47.0667 117.809 48.4267 117.809 50.08C117.809 52.56 118.409 54.3867 119.609 55.56C120.809 56.7067 122.262 57.28 123.969 57.28Z" fill="black"/>
<path d="M140.913 60L136.513 40.16H139.833L142.673 55L146.073 40.16H149.833L153.233 55L156.073 40.16H159.433L154.993 60H151.553L147.953 44.6L144.353 60H140.913Z" fill="black"/>
<path d="M72.6426 15H74.5273V14.8438C74.4102 14.5508 74.319 14.209 74.2539 13.8184C74.1888 13.4212 74.1562 13.0469 74.1562 12.6953V7.7832C74.1562 7.19076 74.0488 6.67318 73.834 6.23047C73.6191 5.78776 73.3262 5.41667 72.9551 5.11719C72.5775 4.82422 72.1315 4.60612 71.6172 4.46289C71.1029 4.31315 70.5462 4.23828 69.9473 4.23828C69.2897 4.23828 68.7005 4.32943 68.1797 4.51172C67.6654 4.69401 67.2292 4.93164 66.8711 5.22461C66.5065 5.52409 66.2266 5.85938 66.0312 6.23047C65.8424 6.60156 65.7448 6.97917 65.7383 7.36328H67.5547C67.5547 7.14193 67.6068 6.93034 67.7109 6.72852C67.8216 6.52018 67.9746 6.34115 68.1699 6.19141C68.3652 6.04167 68.6029 5.92122 68.8828 5.83008C69.1693 5.73893 69.4915 5.69336 69.8496 5.69336C70.2337 5.69336 70.5788 5.74219 70.8848 5.83984C71.1973 5.9375 71.4609 6.07422 71.6758 6.25C71.8906 6.43229 72.0566 6.65039 72.1738 6.9043C72.291 7.1582 72.3496 7.44466 72.3496 7.76367V8.59375H70.377C69.6413 8.59375 68.974 8.66536 68.375 8.80859C67.7826 8.95182 67.2747 9.16667 66.8516 9.45312C66.4284 9.74609 66.0996 10.1107 65.8652 10.5469C65.6374 10.9831 65.5234 11.4909 65.5234 12.0703C65.5234 12.513 65.6081 12.9264 65.7773 13.3105C65.9531 13.6882 66.2005 14.0137 66.5195 14.2871C66.832 14.5671 67.2129 14.7884 67.6621 14.9512C68.1178 15.1139 68.6257 15.1953 69.1855 15.1953C69.5306 15.1953 69.8561 15.1595 70.1621 15.0879C70.4681 15.0163 70.7578 14.9186 71.0312 14.7949C71.2982 14.6712 71.5423 14.528 71.7637 14.3652C71.9915 14.2025 72.1966 14.0299 72.3789 13.8477C72.3984 14.069 72.4277 14.2839 72.4668 14.4922C72.5124 14.694 72.571 14.8633 72.6426 15ZM69.4492 13.623C69.0977 13.623 68.7884 13.5775 68.5215 13.4863C68.2546 13.3952 68.0332 13.2682 67.8574 13.1055C67.6816 12.9492 67.5482 12.7604 67.457 12.5391C67.3724 12.3177 67.3301 12.0768 67.3301 11.8164C67.3301 11.543 67.3789 11.2988 67.4766 11.084C67.5807 10.8691 67.7305 10.6836 67.9258 10.5273C68.1992 10.306 68.5671 10.1432 69.0293 10.0391C69.498 9.92839 70.0449 9.87305 70.6699 9.87305H72.3496V12.0117C72.2454 12.2201 72.1022 12.4219 71.9199 12.6172C71.7376 12.806 71.5228 12.9753 71.2754 13.125C71.0215 13.2747 70.7415 13.3952 70.4355 13.4863C70.1296 13.5775 69.8008 13.623 69.4492 13.623Z" fill="black"/>
<path d="M84.6738 15H86.3145V4.43359H84.498V12.0117C84.4004 12.2396 84.2767 12.4512 84.127 12.6465C83.9837 12.8353 83.8145 12.998 83.6191 13.1348C83.3848 13.304 83.1081 13.4375 82.7891 13.5352C82.4701 13.6263 82.1087 13.6719 81.7051 13.6719C81.36 13.6719 81.054 13.6263 80.7871 13.5352C80.5267 13.444 80.3053 13.2845 80.123 13.0566C79.9408 12.8353 79.804 12.5358 79.7129 12.1582C79.6217 11.7806 79.5762 11.3053 79.5762 10.7324V4.43359H77.7695V10.7129C77.7695 11.5007 77.8542 12.1777 78.0234 12.7441C78.1992 13.304 78.4466 13.7663 78.7656 14.1309C79.0846 14.4954 79.4688 14.7656 79.918 14.9414C80.3672 15.1107 80.8685 15.1953 81.4219 15.1953C82.112 15.1953 82.7207 15.0521 83.248 14.7656C83.7754 14.4727 84.2148 14.0658 84.5664 13.5449L84.6738 15Z" fill="black"/>
<path d="M94 1.875H92.1836V4.43359H89.4102V5.83008H92.1836V11.5723C92.1836 12.2233 92.2682 12.7799 92.4375 13.2422C92.6133 13.6979 92.8509 14.069 93.1504 14.3555C93.4499 14.6484 93.8014 14.8633 94.2051 15C94.6152 15.1302 95.0547 15.1953 95.5234 15.1953C95.8034 15.1953 96.0833 15.1823 96.3633 15.1562C96.6497 15.1302 96.9199 15.0911 97.1738 15.0391C97.4277 14.9935 97.6621 14.9382 97.877 14.873C98.0918 14.8014 98.2741 14.7201 98.4238 14.6289L98.1699 13.3496C98.0592 13.3757 97.916 13.4082 97.7402 13.4473C97.571 13.4798 97.3887 13.5124 97.1934 13.5449C96.9915 13.5775 96.7865 13.6068 96.5781 13.6328C96.3698 13.6523 96.168 13.6621 95.9727 13.6621C95.7057 13.6621 95.4518 13.6296 95.2109 13.5645C94.9766 13.4993 94.7682 13.3854 94.5859 13.2227C94.4036 13.0664 94.2604 12.8548 94.1562 12.5879C94.0521 12.321 94 11.9824 94 11.5723V5.83008H98.0234V4.43359H94V1.875Z" fill="black"/>
<path d="M103.541 6.00586V0H101.734V15H103.541V7.32422C103.671 7.11589 103.818 6.92708 103.98 6.75781C104.15 6.58203 104.332 6.42904 104.527 6.29883C104.775 6.12956 105.045 5.99935 105.338 5.9082C105.631 5.81706 105.94 5.77148 106.266 5.77148C106.663 5.76497 107.014 5.82031 107.32 5.9375C107.626 6.04818 107.88 6.21745 108.082 6.44531C108.271 6.65365 108.414 6.91732 108.512 7.23633C108.609 7.54883 108.658 7.91341 108.658 8.33008V15H110.465V8.34961C110.465 7.63997 110.377 7.02799 110.201 6.51367C110.032 5.99284 109.788 5.56315 109.469 5.22461C109.15 4.88607 108.762 4.63867 108.307 4.48242C107.857 4.31966 107.356 4.23828 106.803 4.23828C106.38 4.24479 105.979 4.30664 105.602 4.42383C105.23 4.54102 104.889 4.71354 104.576 4.94141C104.381 5.07812 104.195 5.23763 104.02 5.41992C103.844 5.5957 103.684 5.79102 103.541 6.00586Z" fill="black"/>
<rect y="9" width="50" height="50" fill="#9747FF"/>
<rect y="9" width="50" height="50" rx="25" fill="#4D2C78"/>
</svg>
